<?xml version="1.0" encoding="utf-8"?>
<!-- Generator: Adobe Illustrator 27.8.0, SVG Export Plug-In . SVG Version: 6.00 Build 0)  -->
<svg version="1.1" id="Layer_1" xmlns="http://www.w3.org/2000/svg" xmlns:xlink="http://www.w3.org/1999/xlink" x="0px" y="0px"
	 viewBox="0 0 1080 1080" style="enable-background:new 0 0 1080 1080;" xml:space="preserve">
<style type="text/css">
	.st0{fill:#00824E;}
</style>
<g>
	<path class="st0" d="M863.03,372.91c-2.11-0.55-4.23-0.82-6.28-0.82c-12.93,0-24.17,10.33-24.17,24.02
		c0,10.88,7.31,20.45,17.83,23.16c53.67,13.8,92.77,62.09,92.77,120.37c0,58.25-39.11,106.55-92.77,120.34
		c-5.26,1.35-9.72,4.42-12.87,8.51c-3.13,4.08-4.97,9.19-4.97,14.64c0,15.87,15.11,27.25,30.45,23.2
		c73.84-19.5,128.29-86.71,128.29-166.7C991.32,459.63,936.87,392.43,863.03,372.91z M805.12,416.03v-48.28
		c-88.82,6.99-158.73,81.24-158.73,171.88c0,90.62,69.91,164.86,158.73,171.87v-48.3c-62.6-6.74-110.6-59.05-110.6-123.58
		C694.51,475.08,742.52,422.77,805.12,416.03z"/>
	<g>
		<g>
			<path class="st0" d="M136.99,399.57l-48.3,104.08h15.7l9.8-21.78h0.04l22.75-50.22l22.73,50.22h0.06l9.8,21.78h15.7
				L136.99,399.57z"/>
			<path class="st0" d="M195.64,445.75v57.89h14.47v-43.57h36.23v-14.32H195.64z M195.64,402v14.51h57.95V402H195.64z"/>
			<path class="st0" d="M361.49,435.8l-11.03,21.34l7.46,46.5h14.79L361.49,435.8z M355.51,399.57l-39.55,76.84l-39.55-76.84
				l-3.8,23.01l43.35,83.48l43.38-83.35L355.51,399.57z M270.37,436.2l-11.16,67.44H274l7.44-46.38L270.37,436.2z"/>
			<path class="st0" d="M436.67,490.33c-20.68,0-37.44-16.8-37.44-37.52s16.75-37.5,37.44-37.5c11.47,0,19.46,3.78,26.41,10.88
				l6.19-13.61c-8.45-7.88-20.68-11.81-31.69-11.81c-29.14,0-52.84,23.3-52.84,52.04c0,28.73,23.71,52.04,52.84,52.04
				c11.01,0,23.24-4.08,31.69-11.96l-6.19-13.61C456.12,486.55,448.14,490.33,436.67,490.33z"/>
			<path class="st0" d="M534.04,400.96v14.56c18.85,2.05,33.3,17.81,33.3,37.29c0,19.48-14.45,35.26-33.3,37.29v14.56
				c26.75-2.11,47.79-24.51,47.79-51.85C581.83,425.47,560.79,403.08,534.04,400.96z M525.78,415.52v-14.56
				c-26.75,2.11-47.79,24.51-47.79,51.85c0,27.34,21.04,49.73,47.79,51.85V490.1c-18.85-2.03-33.3-17.81-33.3-37.29
				C492.49,433.33,506.94,417.57,525.78,415.52z"/>
			<g>
				<path class="st0" d="M125.77,640.09v-14.1l-1.8-0.18c-12.13-1.31-21.25-11.54-21.25-23.83c0-12.27,9.12-22.48,21.25-23.79
					l1.8-0.18v-14.1l-2.18,0.16c-19.57,1.53-34.9,18.18-34.9,37.91c0,12.23,5.61,23.38,15.39,30.63c5.71,4.2,12.45,6.72,19.51,7.3
					L125.77,640.09z"/>
				<path class="st0" d="M554.59,553.15l2.28,2.68l7.71-7.73l-1.82-2.24c-2.66-3.33-2.4-8.11,0.65-11.16
					c3.05-3.05,7.83-3.31,11.16-0.65l2.24,1.82l7.71-7.71l-2.64-2.26c-7.59-6.5-19.09-6.03-26.17,1.07
					c-4.34,4.34-6.38,10.51-5.47,16.54C550.78,547.07,552.29,550.4,554.59,553.15z"/>
				<path class="st0" d="M577.23,554.28l-2.28,1.98c-0.93,0.83-2.1,1.45-3.63,1.96c-1.15,0.34-2.68,0.36-4.18,0.36
					c-0.5,0-1.01,0.02-1.49,0.02c-4.64,0.14-9.36,0.08-14.1,0.04c-2.5-0.04-5-0.06-7.51-0.06h-1.33l-10.9,10.96h10.29
					c2.26,0,4.52,0.02,6.78,0.04h0.69c2.46,0.02,4.96,0.04,7.49,0.04c5.02,0,9.08-0.08,12.75-0.26c4.82-0.22,9.3-2.08,12.63-5.19
					l2.44-2.28L577.23,554.28z"/>
				<path class="st0" d="M481.71,565.74c-2.47-0.25-5.94,0-6.06,0c-19.61,1.54-34.95,18.19-34.95,37.9c0,8.94,3.15,17.26,8.41,23.81
					h-44.2c5.32-6.74,8.18-15.04,8.18-23.87c0-17.6-11.83-33.07-28.8-37.59c-2.22-0.59-4.54-0.15-6.38,1.25
					c-1.8,1.35-2.81,3.42-2.81,5.66c0,3.27,2.2,6.11,5.37,6.91c10.8,2.75,18.34,12.55,18.34,23.77c0,11.24-7.46,21.02-18.15,23.83
					l-0.25,0.02l-0.27,0.15c-0.02,0-0.02,0-0.04,0.02c-0.32,0.11-0.63,0.21-0.95,0.36c-0.25,0.13-0.53,0.27-0.78,0.44
					c-0.06,0.02-0.13,0.06-0.17,0.11c-0.25,0.17-0.51,0.38-0.74,0.59c-0.23,0.19-0.42,0.4-0.59,0.61c-0.19,0.23-0.38,0.44-0.53,0.7
					c-0.19,0.25-0.36,0.53-0.46,0.85c-0.08,0.15-0.17,0.32-0.23,0.51c-0.06,0.15-0.13,0.34-0.19,0.51
					c-0.04,0.19-0.08,0.38-0.13,0.55c-0.04,0.19-0.08,0.38-0.11,0.59c-0.02,0.06-0.04,0.15-0.04,0.19
					c-0.02,0.13-0.04,0.25-0.02,0.36c-0.04,0.15-0.04,0.3-0.04,0.42c0,0.17,0,0.38,0.04,0.61v0.8l0.13,0.08v0.02
					c0.63,2.98,3.11,5.28,6.04,5.64l0.06,0.06h99.83c0.17,0,0.34-0.02,0.46-0.04c1.44-0.13,2.85-0.32,4.25-0.59
					c17.54-3.4,30.7-19.06,30.7-37.33C516.61,583.93,501.3,567.28,481.71,565.74z M481.31,627.45l-0.08,0.02
					c-0.74,0.11-3.11,0.32-5.22-0.02c-12.13-1.29-21.25-11.51-21.25-23.81c0-12.25,9.13-22.48,21.38-23.81
					c0.84-0.13,1.69-0.19,2.43-0.19c1.5,0,2.64,0.19,2.75,0.19c12.11,1.33,21.25,11.56,21.25,23.81
					C502.56,615.94,493.41,626.16,481.31,627.45z"/>
				<rect x="554.39" y="573.73" class="st0" width="14.12" height="82.56"/>
				<rect x="469.69" y="544.35" class="st0" width="17.94" height="17.96"/>
			</g>
		</g>
		<path class="st0" d="M340.01,603.62c0,12.3,9.13,22.54,21.23,23.83l1.8,0.21v14.09l-2.18-0.17H151.67
			c-6.13,6.28-12.38,12.42-18.53,18.44c-4.1,4.04-8.2,8.07-12.28,12.13l-7.48,7.52v-19.94l0.57-0.59c3.93-3.93,7.92-7.82,11.89-11.7
			c7.44-7.29,15.13-14.81,22.4-22.5c0.7-0.76,1.42-1.5,2.18-2.24c2.62-2.68,5.35-5.43,6.93-8.47c2.24-4.33,3.3-8.22,3.3-12.25
			c0-12.28-9.15-22.5-21.28-23.79l-1.8-0.17V563.9l2.16,0.17c19.61,1.52,34.97,18.17,34.97,37.9c0,9.19-3.44,18.21-9.7,25.46h54.45
			c-5.28-6.55-8.41-14.85-8.41-23.77c0-9.57,3.7-18.93,10.44-26.35c9.99-10.94,20.75-21.53,31.14-31.73
			c4.1-4.04,8.18-8.05,12.23-12.11l7.5-7.5v19.92l-0.59,0.59c-3.93,3.93-7.9,7.82-11.9,11.73c-7.44,7.27-15.15,14.83-22.4,22.5
			c-0.7,0.74-1.42,1.48-2.18,2.24c-2.62,2.68-5.35,5.43-6.93,8.47c-2.24,4.31-3.3,8.2-3.3,12.23c0,9.49,5.47,17.77,13.56,21.61
			c0.02,0,0.02,0.02,0.04,0.02c1.01,0.51,2.07,0.89,3.04,1.2c2.45,0.74,4.48,0.93,4.48,0.93h88.08c-5.43-6.72-8.37-15-8.37-23.81
			c0-19.71,15.36-36.34,34.95-37.88l2.18-0.17v14.09l-1.8,0.19C349.13,581.16,340.01,591.39,340.01,603.62z"/>
	</g>
</g>
</svg>
